<mxfile host="app.diagrams.net" modified="2020-11-27T03:34:59.434Z" agent="5.0 (Macintosh; Intel Mac OS X 10_15_7) AppleWebKit/537.36 (KHTML, like Gecko) Chrome/87.0.4280.67 Safari/537.36" etag="5pvJ-CiQAV6j4PSezHqD" version="13.10.2" type="github">
  <diagram id="quC1iJzci4VbWghRzmbq" name="第 1 页">
    <mxGraphModel dx="946" dy="527" grid="1" gridSize="10" guides="1" tooltips="1" connect="1" arrows="1" fold="1" page="1" pageScale="1" pageWidth="827" pageHeight="1169" math="0" shadow="0">
      <root>
        <mxCell id="0" />
        <mxCell id="1" parent="0" />
        <mxCell id="65h7xfymiYvFM9uL6vc3-4" value="" style="edgeStyle=orthogonalEdgeStyle;rounded=0;orthogonalLoop=1;jettySize=auto;html=1;" edge="1" parent="1" source="65h7xfymiYvFM9uL6vc3-2" target="65h7xfymiYvFM9uL6vc3-3">
          <mxGeometry relative="1" as="geometry" />
        </mxCell>
        <mxCell id="65h7xfymiYvFM9uL6vc3-19" value="转化" style="edgeLabel;html=1;align=center;verticalAlign=middle;resizable=0;points=[];" vertex="1" connectable="0" parent="65h7xfymiYvFM9uL6vc3-4">
          <mxGeometry x="-0.0133" y="3" relative="1" as="geometry">
            <mxPoint as="offset" />
          </mxGeometry>
        </mxCell>
        <mxCell id="65h7xfymiYvFM9uL6vc3-2" value="初级流量池" style="rounded=1;whiteSpace=wrap;html=1;fillColor=#f8cecc;strokeColor=#b85450;" vertex="1" parent="1">
          <mxGeometry x="310" y="120" width="120" height="60" as="geometry" />
        </mxCell>
        <mxCell id="65h7xfymiYvFM9uL6vc3-3" value="高级流量池子" style="whiteSpace=wrap;html=1;rounded=1;fillColor=#f8cecc;strokeColor=#b85450;" vertex="1" parent="1">
          <mxGeometry x="310" y="310" width="120" height="60" as="geometry" />
        </mxCell>
        <mxCell id="65h7xfymiYvFM9uL6vc3-7" value="退出机制&lt;br&gt;进入机制&lt;br&gt;教育体系" style="whiteSpace=wrap;html=1;aspect=fixed;fillColor=#fff2cc;strokeColor=#d6b656;" vertex="1" parent="1">
          <mxGeometry x="190" y="170" width="100" height="100" as="geometry" />
        </mxCell>
        <mxCell id="65h7xfymiYvFM9uL6vc3-13" value="" style="edgeStyle=orthogonalEdgeStyle;rounded=0;orthogonalLoop=1;jettySize=auto;html=1;entryX=1;entryY=0.5;entryDx=0;entryDy=0;" edge="1" parent="1" source="65h7xfymiYvFM9uL6vc3-12" target="65h7xfymiYvFM9uL6vc3-2">
          <mxGeometry relative="1" as="geometry">
            <mxPoint x="430" y="10" as="targetPoint" />
          </mxGeometry>
        </mxCell>
        <mxCell id="65h7xfymiYvFM9uL6vc3-18" style="edgeStyle=orthogonalEdgeStyle;rounded=0;orthogonalLoop=1;jettySize=auto;html=1;exitX=1;exitY=0.5;exitDx=0;exitDy=0;entryX=0;entryY=0.5;entryDx=0;entryDy=0;" edge="1" parent="1" source="65h7xfymiYvFM9uL6vc3-10" target="65h7xfymiYvFM9uL6vc3-2">
          <mxGeometry relative="1" as="geometry" />
        </mxCell>
        <mxCell id="65h7xfymiYvFM9uL6vc3-10" value="外部合作流量" style="whiteSpace=wrap;html=1;rounded=1;" vertex="1" parent="1">
          <mxGeometry x="50" y="120" width="120" height="60" as="geometry" />
        </mxCell>
        <mxCell id="65h7xfymiYvFM9uL6vc3-12" value="内部渠道流量" style="whiteSpace=wrap;html=1;rounded=1;" vertex="1" parent="1">
          <mxGeometry x="580" y="120" width="120" height="60" as="geometry" />
        </mxCell>
        <mxCell id="65h7xfymiYvFM9uL6vc3-20" value="退出机制&lt;br&gt;进入机制&lt;br&gt;教育体系" style="whiteSpace=wrap;html=1;aspect=fixed;fillColor=#fff2cc;strokeColor=#d6b656;" vertex="1" parent="1">
          <mxGeometry x="460" y="170" width="100" height="100" as="geometry" />
        </mxCell>
        <mxCell id="65h7xfymiYvFM9uL6vc3-21" value="目的：提升平台交易量，提升产品使用率" style="whiteSpace=wrap;html=1;aspect=fixed;fillColor=#fff2cc;strokeColor=#d6b656;" vertex="1" parent="1">
          <mxGeometry x="325" y="400" width="90" height="90" as="geometry" />
        </mxCell>
      </root>
    </mxGraphModel>
  </diagram>
</mxfile>
